HIERARCHY
ROOT Hips
{
  OFFSET 5.84602e-005 68.8428 3.50346
  CHANNELS 6 Xposition Yposition Zposition Zrotation Xrotation Yrotation
  JOINT Spine
  {
    OFFSET 0 8.597 -4.6522
    CHANNELS 3 Zrotation Xrotation Yrotation
    JOINT Spine1
    {
      OFFSET 0 7.8454 0.4098
      CHANNELS 3 Zrotation Xrotation Yrotation
      JOINT Spine2
      {
        OFFSET 0 9.7078 -2.1609
        CHANNELS 3 Zrotation Xrotation Yrotation
        JOINT Neck
        {
          OFFSET 0 21.8761 -0.4549
          CHANNELS 3 Zrotation Xrotation Yrotation
          JOINT Head
          {
            OFFSET 0 12.3537 3.3602
            CHANNELS 3 Zrotation Xrotation Yrotation
            End Site
            {
              OFFSET 0.0001 18.9506 0.5657
            }
          }
        }
        JOINT LeftShoulder
        {
          OFFSET 2.2086 21.1115 7.2329
          CHANNELS 3 Zrotation Xrotation Yrotation
          JOINT LeftArm
          {
            OFFSET 13.1193 3.0282 -4.8998
            CHANNELS 3 Zrotation Xrotation Yrotation
            JOINT LeftForeArm
            {
              OFFSET 27.4081 -0.0973053 -0.2375
              CHANNELS 3 Zrotation Xrotation Yrotation
              JOINT LeftHand
              {
                OFFSET 22.8641 0.0662994 -0.1369
                CHANNELS 3 Zrotation Xrotation Yrotation
                JOINT LeftHandIndex1
                {
                  OFFSET 8.8614 0.775009 2.4612
                  CHANNELS 3 Zrotation Xrotation Yrotation
                  JOINT LeftHandIndex2
                  {
                    OFFSET 3.3146 -0.808304 0.5841
                    CHANNELS 3 Zrotation Xrotation Yrotation
                    JOINT LeftHandIndex3
                    {
                      OFFSET 2.2628 -0.552002 0.3989
                      CHANNELS 3 Zrotation Xrotation Yrotation
                      End Site
                      {
                        OFFSET 1.6102 -0.4807 0.2612
                      }
                    }
                  }
                }
                JOINT LeftHandMiddle1
                {
                  OFFSET 8.9937 0.895004 0.2143
                  CHANNELS 3 Zrotation Xrotation Yrotation
                  JOINT LeftHandMiddle2
                  {
                    OFFSET 4.0984 0.0113983 -0.0242
                    CHANNELS 3 Zrotation Xrotation Yrotation
                    JOINT LeftHandMiddle3
                    {
                      OFFSET 2.2716 0.00689697 -0.0138001
                      CHANNELS 3 Zrotation Xrotation Yrotation
                      End Site
                      {
                        OFFSET 2.0404 -0.1441 0.0027
                      }
                    }
                  }
                }
                JOINT LeftHandRing1
                {
                  OFFSET 8.5234 0.597198 -2.0164
                  CHANNELS 3 Zrotation Xrotation Yrotation
                  JOINT LeftHandRing2
                  {
                    OFFSET 3.7188 -0.188293 -0.2328
                    CHANNELS 3 Zrotation Xrotation Yrotation
                    JOINT LeftHandRing3
                    {
                      OFFSET 2.1191 -0.106598 -0.1332
                      CHANNELS 3 Zrotation Xrotation Yrotation
                      End Site
                      {
                        OFFSET 1.8737 -0.2304 -0.0886
                      }
                    }
                  }
                }
                JOINT LeftHandPinky1
                {
                  OFFSET 7.9094 -0.601089 -3.4825
                  CHANNELS 3 Zrotation Xrotation Yrotation
                  JOINT LeftHandPinky2
                  {
                    OFFSET 2.2874 -0.477005 -0.6314
                    CHANNELS 3 Zrotation Xrotation Yrotation
                    JOINT LeftHandPinky3
                    {
                      OFFSET 1.6774 -0.349396 -0.4633
                      CHANNELS 3 Zrotation Xrotation Yrotation
                      End Site
                      {
                        OFFSET 1.4888 -0.4091 -0.3416
                      }
                    }
                  }
                }
                JOINT LeftHandThumb1
                {
                  OFFSET 1.833 -1.3875 1.3896
                  CHANNELS 3 Zrotation Xrotation Yrotation
                  JOINT LeftHandThumb2
                  {
                    OFFSET 3.4129 -1.121 2.5732
                    CHANNELS 3 Zrotation Xrotation Yrotation
                    JOINT LeftHandThumb3
                    {
                      OFFSET 2.2474 -0.804199 1.6192
                      CHANNELS 3 Zrotation Xrotation Yrotation
                      End Site
                      {
                        OFFSET 1.6527 -0.5689 1.1317
                      }
                    }
                  }
                }
              }
            }
          }
        }
        JOINT RightShoulder
        {
          OFFSET -2.2086 21.1115 7.2329
          CHANNELS 3 Zrotation Xrotation Yrotation
          JOINT RightArm
          {
            OFFSET -13.1216 3.0287 -4.9007
            CHANNELS 3 Zrotation Xrotation Yrotation
            JOINT RightForeArm
            {
              OFFSET -27.4081 -0.0973053 -0.2375
              CHANNELS 3 Zrotation Xrotation Yrotation
              JOINT RightHand
              {
                OFFSET -22.8641 0.0664063 -0.1369
                CHANNELS 3 Zrotation Xrotation Yrotation
                JOINT RightHandIndex1
                {
                  OFFSET -8.8614 0.774994 2.4612
                  CHANNELS 3 Zrotation Xrotation Yrotation
                  JOINT RightHandIndex2
                  {
                    OFFSET -3.3146 -0.808304 0.5841
                    CHANNELS 3 Zrotation Xrotation Yrotation
                    JOINT RightHandIndex3
                    {
                      OFFSET -2.2628 -0.552002 0.3989
                      CHANNELS 3 Zrotation Xrotation Yrotation
                      End Site
                      {
                        OFFSET -1.6102 -0.4807 0.2612
                      }
                    }
                  }
                }
                JOINT RightHandMiddle1
                {
                  OFFSET -8.9937 0.894989 0.2143
                  CHANNELS 3 Zrotation Xrotation Yrotation
                  JOINT RightHandMiddle2
                  {
                    OFFSET -4.0984 0.0113983 -0.0242
                    CHANNELS 3 Zrotation Xrotation Yrotation
                    JOINT RightHandMiddle3
                    {
                      OFFSET -2.2716 0.00691223 -0.0138001
                      CHANNELS 3 Zrotation Xrotation Yrotation
                      End Site
                      {
                        OFFSET -2.0404 -0.1441 0.0027
                      }
                    }
                  }
                }
                JOINT RightHandRing1
                {
                  OFFSET -8.5234 0.597198 -2.0164
                  CHANNELS 3 Zrotation Xrotation Yrotation
                  JOINT RightHandRing2
                  {
                    OFFSET -3.7188 -0.188309 -0.2328
                    CHANNELS 3 Zrotation Xrotation Yrotation
                    JOINT RightHandRing3
                    {
                      OFFSET -2.1191 -0.106598 -0.1332
                      CHANNELS 3 Zrotation Xrotation Yrotation
                      End Site
                      {
                        OFFSET -1.8737 -0.2304 -0.0886
                      }
                    }
                  }
                }
                JOINT RightHandPinky1
                {
                  OFFSET -7.9094 -0.601105 -3.4825
                  CHANNELS 3 Zrotation Xrotation Yrotation
                  JOINT RightHandPinky2
                  {
                    OFFSET -2.2874 -0.477005 -0.6314
                    CHANNELS 3 Zrotation Xrotation Yrotation
                    JOINT RightHandPinky3
                    {
                      OFFSET -1.6774 -0.349396 -0.4633
                      CHANNELS 3 Zrotation Xrotation Yrotation
                      End Site
                      {
                        OFFSET -1.4888 -0.4091 -0.3416
                      }
                    }
                  }
                }
                JOINT RightHandThumb1
                {
                  OFFSET -1.833 -1.38751 1.3896
                  CHANNELS 3 Zrotation Xrotation Yrotation
                  JOINT RightHandThumb2
                  {
                    OFFSET -3.41299 -1.12099 2.5732
                    CHANNELS 3 Zrotation Xrotation Yrotation
                    JOINT RightHandThumb3
                    {
                      OFFSET -2.24741 -0.804108 1.6192
                      CHANNELS 3 Zrotation Xrotation Yrotation
                      End Site
                      {
                        OFFSET -1.6527 -0.5689 1.1317
                      }
                    }
                  }
                }
              }
            }
          }
        }
      }
    }
  }
  JOINT RightUpLeg
  {
    OFFSET -9.1966 3.8861 -0.7581
    CHANNELS 3 Zrotation Xrotation Yrotation
    JOINT RightLeg
    {
      OFFSET -0.7359 -41.0265 0
      CHANNELS 3 Zrotation Xrotation Yrotation
      JOINT RightFoot
      {
        OFFSET 0 -40.2855 0
        CHANNELS 3 Zrotation Xrotation Yrotation
        JOINT RightToeBase
        {
          OFFSET 0 -5.6122 11.7359
          CHANNELS 3 Zrotation Xrotation Yrotation
          End Site
          {
            OFFSET 0 0 7.8731
          }
        }
      }
    }
  }
  JOINT LeftUpLeg
  {
    OFFSET 9.1965 3.8864 -0.7581
    CHANNELS 3 Zrotation Xrotation Yrotation
    JOINT LeftLeg
    {
      OFFSET 0.7359 -41.0268 0
      CHANNELS 3 Zrotation Xrotation Yrotation
      JOINT LeftFoot
      {
        OFFSET 0 -40.2855 0
        CHANNELS 3 Zrotation Xrotation Yrotation
        JOINT LeftToeBase
        {
          OFFSET 0 -5.6122 11.7359
          CHANNELS 3 Zrotation Xrotation Yrotation
          End Site
          {
            OFFSET 0 0 7.8731
          }
        }
      }
    }
  }
}
MOTION
Frames:	5
Frame Time:	0.0333333
-0.0293831 67.2821 -65.4577 0 39.9976 -0 -0.704313 12.9663 -0.0449403 -1.4563 25.9321 0.0820873 -1.4563 25.9321 0.0820869 5.82939e-006 -45.227 2.94534e-006 -3.61065e-007 -10.8154 -6.97645e-007 -45.3427 -6.48188 50.0469 -46.7176 36.3567 31.1899 2.85812 -0.563835 -3.31148 -5.5706 0.073183 13.1075 1.78906e-015 0 -1.59028e-015 5.96354e-016 -3.18055e-015 -1.59028e-015 -3.97569e-016 -4.77083e-015 -3.97569e-015 1.78906e-015 0 -1.59028e-015 -0.0146123 -8.88634e-005 -7.6954e-007 3.19545e-006 2.85083e-007 4.70068e-007 1.78906e-015 0 -1.59028e-015 -0.0186815 -0.00117148 5.8871e-005 -4.37326e-015 -4.77083e-015 2.38542e-015 1.78906e-015 0 -1.59028e-015 -0.0123811 -0.00327784 0.00068042 3.19576e-006 2.84655e-007 4.70063e-007 1.78906e-015 0 -1.59028e-015 5.96354e-016 -3.18055e-015 -1.59028e-015 -3.97569e-016 -4.77083e-015 -3.97569e-015 44.492 -6.35548 -48.1439 45.2905 36.5982 -30.3369 0.437064 -0.133138 11.5941 7.19028 0.191755 13.127 -4.68943e-007 -9.18213e-007 1.29936e-006 2.12055e-006 4.09991e-007 -2.23701e-006 1.5523e-006 -2.28576e-006 6.15299e-007 -4.68943e-007 -9.18213e-007 1.29936e-006 0.0150409 -9.56619e-005 -2.11407e-006 -4.68995e-007 -9.18042e-007 1.29948e-006 -4.68943e-007 -9.18213e-007 1.29936e-006 0.018956 -0.00118928 -6.11567e-005 -4.68996e-007 -9.17994e-007 1.29951e-006 -4.68943e-007 -9.18213e-007 1.29936e-006 0.0123806 -0.00327765 -0.000681141 -4.68945e-007 -9.18063e-007 1.29947e-006 -4.68943e-007 -9.18213e-007 1.29936e-006 2.12055e-006 4.09991e-007 -2.23701e-006 1.5523e-006 -2.28576e-006 6.15299e-007 -9.2873 -41.7252 -5.64122 -0.0553724 12.2294 0.121138 -4.75839 -8.28016 0.848605 3.23025e-015 -3.97569e-016 -3.97569e-016 14.9504 -37.6632 -0.752592 -3.46382 9.82099 0.744213 7.5523 -4.82141 9.28692 -1.68996e-006 -5.13956e-009 -3.24405e-008 
-0.0301527 67.2821 -65.4576 0 39.9976 -0 -0.704872 12.9377 -0.0438618 -1.45748 25.8749 0.0840245 -1.45748 25.8749 0.0840246 1.58653e-005 -44.9517 1.07583e-005 -5.8706e-007 -10.3057 2.31199e-007 -45.3774 -6.42582 50.1874 -46.7022 36.3642 31.1841 2.85811 -0.56383 -3.31149 -5.5706 0.0731777 13.1075 -2.5842e-015 3.18055e-015 -0 -7.95139e-016 1.59028e-015 1.59028e-015 -3.77691e-015 0 1.59028e-015 -2.5842e-015 3.18055e-015 -0 -0.0145741 -8.76847e-005 -2.64482e-007 -2.09614e-006 5.59196e-007 -3.31764e-007 -2.5842e-015 3.18055e-015 -0 -0.0187797 -0.00117632 5.92591e-005 -4.57205e-015 -1.59028e-015 3.97569e-015 -2.5842e-015 3.18055e-015 -0 -0.0123434 -0.00326605 0.000679803 -2.09577e-006 5.58667e-007 -3.31602e-007 -2.5842e-015 3.18055e-015 -0 -7.95139e-016 1.59028e-015 1.59028e-015 -3.77691e-015 0 1.59028e-015 44.5266 -6.29554 -48.2719 45.2904 36.5982 -30.3368 0.437066 -0.133134 11.5941 7.19027 0.191745 13.127 8.10851e-007 2.59975e-006 1.83474e-006 4.8578e-006 -3.30408e-006 -1.25796e-006 8.10851e-007 2.59975e-006 1.83474e-006 8.10851e-007 2.59975e-006 1.83474e-006 0.0150168 -9.50474e-005 8.82214e-007 8.10729e-007 2.59999e-006 1.83439e-006 8.10851e-007 2.59975e-006 1.83474e-006 0.0190125 -0.00119143 -6.38706e-005 8.10713e-007 2.60006e-006 1.8343e-006 8.10851e-007 2.59975e-006 1.83474e-006 0.0124261 -0.0032877 -0.000684538 8.10786e-007 2.59998e-006 1.83444e-006 8.10851e-007 2.59975e-006 1.83474e-006 4.8578e-006 -3.30408e-006 -1.25796e-006 8.10851e-007 2.59975e-006 1.83474e-006 -9.20342 -41.7276 -5.33019 -0.0553666 12.2296 0.120835 -4.73718 -8.25562 0.583255 1.11816e-015 3.97569e-016 -0 14.9521 -37.6923 -0.74751 -3.33091 9.94563 0.720812 7.55137 -4.85189 9.2889 1.25661e-008 -1.27303e-006 1.34527e-007 
-0.0309215 67.282 -65.4574 0 39.9976 -0 -0.705425 12.9091 -0.0427835 -1.45865 25.8177 0.0859596 -1.45865 25.8177 0.08596 4.30772e-006 -44.6765 2.84672e-006 2.01635e-008 -9.79605 -1.12227e-007 -45.4122 -6.36984 50.3278 -46.6867 36.3716 31.1782 2.85811 -0.563835 -3.31149 -5.57059 0.0731855 13.1075 -7.95139e-016 3.18055e-015 -7.95139e-016 -1.78906e-015 0 -1.59028e-015 1.98785e-016 -1.59028e-015 -1.59028e-015 -7.95139e-016 3.18055e-015 -7.95139e-016 -0.0146152 -8.88532e-005 -1.61821e-006 7.95139e-016 0 -0 -7.95139e-016 3.18055e-015 -7.95139e-016 -0.0187383 -0.00117507 5.86939e-005 3.18055e-015 1.59028e-015 7.95139e-016 -7.95139e-016 3.18055e-015 -7.95139e-016 -0.0122637 -0.00324551 0.000675629 4.37326e-015 -1.59028e-015 1.59028e-015 -7.95139e-016 3.18055e-015 -7.95139e-016 -1.78906e-015 0 -1.59028e-015 1.98785e-016 -1.59028e-015 -1.59028e-015 44.5613 -6.23568 -48.4 45.2905 36.5982 -30.3369 0.437065 -0.133134 11.594 7.19026 0.191748 13.127 4.39072e-006 -4.22246e-006 4.44917e-008 4.69385e-007 9.16524e-007 -1.30039e-006 -2.60216e-006 -1.32117e-006 3.53539e-006 4.39072e-006 -4.22246e-006 4.44917e-008 0.0149362 -9.13063e-005 -8.01406e-006 -9.38873e-007 -1.83271e-006 2.60102e-006 4.39072e-006 -4.22246e-006 4.44917e-008 0.0190125 -0.00119151 -5.7531e-005 -9.38876e-007 -1.83261e-006 2.60109e-006 4.39072e-006 -4.22246e-006 4.44917e-008 0.0122916 -0.00325653 -0.000683858 -9.38772e-007 -1.83275e-006 2.60101e-006 4.39072e-006 -4.22246e-006 4.44917e-008 4.69385e-007 9.16524e-007 -1.30039e-006 -2.60216e-006 -1.32117e-006 3.53539e-006 -9.11952 -41.7296 -5.01915 -0.0553719 12.2297 0.12054 -4.71585 -8.23118 0.317914 -1.53483e-006 -5.70037e-008 -1.3541e-007 14.9537 -37.7211 -0.742507 -3.19789 10.0696 0.697155 7.55044 -4.88207 9.29085 -2.00619e-006 -3.01151e-007 -1.65894e-007 
-0.031691 67.282 -65.4572 0 39.9976 -0 -0.70597 12.8805 -0.0417042 -1.4598 25.7605 0.0878935 -1.4598 25.7604 0.087892 3.80882e-007 -44.4012 -3.68847e-007 4.34452e-007 -9.28648 -1.79061e-007 -45.4472 -6.31393 50.4682 -46.6713 36.379 31.1723 2.85815 -0.563829 -3.31148 -5.57063 0.0731768 13.1075 -8.8056e-007 -6.43225e-007 -1.3236e-006 1.8499e-007 -1.34026e-007 -1.52131e-006 -3.97569e-016 -1.59028e-015 -7.95139e-016 -8.8056e-007 -6.43225e-007 -1.3236e-006 -0.0145822 -8.94995e-005 -1.87097e-006 1.59028e-015 -1.59028e-015 -0 -8.8056e-007 -6.43225e-007 -1.3236e-006 -0.0187741 -0.00117804 5.76375e-005 2.18663e-015 -1.59028e-015 2.38542e-015 -8.8056e-007 -6.43225e-007 -1.3236e-006 -0.0122354 -0.00323912 0.000674643 -3.18055e-015 -4.77083e-015 2.38542e-015 -8.8056e-007 -6.43225e-007 -1.3236e-006 1.8499e-007 -1.34026e-007 -1.52131e-006 -3.97569e-016 -1.59028e-015 -7.95139e-016 44.5961 -6.1759 -48.5281 45.2905 36.5982 -30.3368 0.437053 -0.133131 11.5941 7.19028 0.191752 13.127 2.38542e-015 -2.38542e-015 -0 3.18055e-015 -1.59028e-015 -3.18055e-015 -3.97569e-015 -4.77083e-015 -0 2.38542e-015 -2.38542e-015 -0 0.0149891 -9.52689e-005 -3.32536e-007 -3.97569e-015 1.59028e-015 -3.18055e-015 2.38542e-015 -2.38542e-015 -0 0.0190019 -0.00119574 -6.26478e-005 -1.99079e-006 1.3647e-006 6.88355e-007 2.38542e-015 -2.38542e-015 -0 0.0123299 -0.00326784 -0.000679453 -3.97569e-015 2.14687e-014 -3.18055e-015 2.38542e-015 -2.38542e-015 -0 3.18055e-015 -1.59028e-015 -3.18055e-015 -3.97569e-015 -4.77083e-015 -0 -9.03564 -41.7315 -4.70814 -0.0553716 12.2303 0.120238 -4.69441 -8.20704 0.0525766 -2.95692e-015 -3.97569e-016 -3.97569e-016 14.9553 -37.7498 -0.737574 -3.06476 10.1934 0.67325 7.54951 -4.91218 9.2928 -1.00411e-006 -3.79888e-007 -1.55646e-007 
-0.0324597 67.2819 -65.4571 0 39.9976 -0 -0.70651 12.8519 -0.0406249 -1.46093 25.7033 0.0898248 -1.46093 25.7032 0.089824 1.59915e-005 -44.1259 6.42657e-006 1.45914e-007 -8.77701 3.39278e-007 -45.4822 -6.25813 50.6087 -46.6558 36.3865 31.1664 2.8581 -0.563839 -3.31148 -5.57061 0.0731795 13.1075 -1.10478e-006 -1.16819e-006 7.26373e-007 -5.03733e-008 2.64803e-007 3.30576e-007 -8.4636e-008 -3.96349e-007 8.60183e-007 -1.10478e-006 -1.16819e-006 7.26373e-007 -0.0145937 -8.82825e-005 8.67673e-008 -8.4646e-008 -3.96459e-007 8.60132e-007 -1.10478e-006 -1.16819e-006 7.26373e-007 -0.0187417 -0.00117532 5.89412e-005 -8.4641e-008 -3.9649e-007 8.60119e-007 -1.10478e-006 -1.16819e-006 7.26373e-007 -0.0123377 -0.00326555 0.000680325 -1.10583e-006 -1.16854e-006 7.26337e-007 -1.10478e-006 -1.16819e-006 7.26373e-007 -5.03733e-008 2.64803e-007 3.30576e-007 -8.4636e-008 -3.96349e-007 8.60183e-007 44.6311 -6.11619 -48.6562 45.2904 36.5982 -30.3368 0.437108 -0.133141 11.594 7.19026 0.191748 13.127 -4.69831e-007 -9.14835e-007 1.30142e-006 -4.69831e-007 -9.14835e-007 1.30142e-006 -1.28064e-006 -3.51768e-006 -5.28247e-007 -4.69831e-007 -9.14835e-007 1.30142e-006 0.0149823 -9.25462e-005 1.97435e-007 -1.28057e-006 -3.51775e-006 -5.27786e-007 -4.69831e-007 -9.14835e-007 1.30142e-006 0.0190663 -0.00120322 -6.24287e-005 -1.28055e-006 -3.51777e-006 -5.27649e-007 -4.69831e-007 -9.14835e-007 1.30142e-006 0.0123222 -0.00326685 -0.000679982 -1.28058e-006 -3.51776e-006 -5.27836e-007 -4.69831e-007 -9.14835e-007 1.30142e-006 -4.69831e-007 -9.14835e-007 1.30142e-006 -1.28064e-006 -3.51768e-006 -5.28247e-007 -8.95175 -41.7331 -4.39713 -0.0553722 12.231 0.11994 -4.67286 -8.18308 -0.21275 2.26118e-015 -7.95139e-016 -7.95139e-016 14.957 -37.778 -0.732714 -2.93152 10.3159 0.649055 7.54857 -4.94173 9.29471 -1.54058e-015 -1.59028e-015 3.97569e-016 
